<svg xmlns="http://www.w3.org/2000/svg" viewBox="0 0 512 512">
  <rect width="512" height="512" rx="96" fill="#1f3a2e"/>
  <g fill="none" stroke="#cdb89a" stroke-width="14" stroke-linecap="round">
    <path d="M88 384 Q140 280 110 176 Q90 112 132 64"/>
    <path d="M168 416 Q210 312 188 200 Q172 128 222 80"/>
    <path d="M248 432 Q278 328 264 220 Q254 144 304 96"/>
    <path d="M328 416 Q352 320 348 220 Q344 144 388 88"/>
    <path d="M408 384 Q420 296 432 200"/>
    <path d="M64 240 Q132 248 168 232"/>
    <path d="M80 320 Q160 332 200 312"/>
    <path d="M120 160 Q180 168 220 152"/>
    <path d="M260 160 Q316 168 360 156"/>
    <path d="M268 320 Q344 332 392 316"/>
  </g>
</svg>
